Coordinates
version=1
nRows=4
nColumns=124
inDegrees=yes

Units are S.I. units (second, meters, Newtons, ...)
If the header above contains a line with 'inDegrees', this indicates whether rotational values are in degrees (yes) or radians (no).

endheader 
time	pelvis_tilt	pelvis_list	pelvis_rotation	pelvis_tx	pelvis_ty	pelvis_tz	hip_flexion_l	hip_adduction_l	hip_rotation_l	hip_flexion_r	hip_adduction_r	hip_rotation_r	knee_angle_l	knee_angle_r	ankle_angle_l	ankle_angle_r	subtalar_angle_l	subtalar_angle_r	mtp_angle_l	mtp_angle_r	lumbar_extension	lumbar_bending	lumbar_rotation	arm_flex_l	arm_add_l	arm_rot_l	arm_flex_r	arm_add_r	arm_rot_r	elbow_flex_l	elbow_flex_r	glut_med1_l/activation	glut_med2_l/activation	glut_med3_l/activation	glut_min1_l/activation	glut_min2_l/activation	glut_min3_l/activation	semimem_l/activation	semiten_l/activation	bifemlh_l/activation	bifemsh_l/activation	sar_l/activation	add_long_l/activation	add_brev_l/activation	add_mag1_l/activation	add_mag2_l/activation	add_mag3_l/activation	tfl_l/activation	pect_l/activation	grac_l/activation	glut_max1_l/activation	glut_max2_l/activation	glut_max3_l/activation	iliacus_l/activation	psoas_l/activation	quad_fem_l/activation	gem_l/activation	peri_l/activation	rect_fem_l/activation	vas_med_l/activation	vas_int_l/activation	vas_lat_l/activation	med_gas_l/activation	lat_gas_l/activation	soleus_l/activation	tib_post_l/activation	flex_dig_l/activation	flex_hal_l/activation	tib_ant_l/activation	per_brev_l/activation	per_long_l/activation	per_tert_l/activation	ext_dig_l/activation	ext_hal_l/activation	ercspn_l/activation	intobl_l/activation	extobl_l/activation	glut_med1_r/activation	glut_med2_r/activation	glut_med3_r/activation	glut_min1_r/activation	glut_min2_r/activation	glut_min3_r/activation	semimem_r/activation	semiten_r/activation	bifemlh_r/activation	bifemsh_r/activation	sar_r/activation	add_long_r/activation	add_brev_r/activation	add_mag1_r/activation	add_mag2_r/activation	add_mag3_r/activation	tfl_r/activation	pect_r/activation	grac_r/activation	glut_max1_r/activation	glut_max2_r/activation	glut_max3_r/activation	iliacus_r/activation	psoas_r/activation	quad_fem_r/activation	gem_r/activation	peri_r/activation	rect_fem_r/activation	vas_med_r/activation	vas_int_r/activation	vas_lat_r/activation	med_gas_r/activation	lat_gas_r/activation	soleus_r/activation	tib_post_r/activation	flex_dig_r/activation	flex_hal_r/activation	tib_ant_r/activation	per_brev_r/activation	per_long_r/activation	per_tert_r/activation	ext_dig_r/activation	ext_hal_r/activation	ercspn_r/activation	intobl_r/activation	extobl_r/activation	
          1.25077115	         -5.65105876	          0.48028275	          2.74494677	          0.83679718	          1.01048690	          0.01379675	          7.98873174	          2.76225087	         -0.23497774	         12.96054691	          5.92011383	         14.62954103	        -44.38662076	        -12.32073878	         13.45867104	          8.46620641	          2.91192692	        -11.06199173	          3.31028280	          2.96567435	          2.57250178	          1.60512154	         -9.21569305	         -3.19766423	        -13.46345282	         19.34892240	        -17.50634896	        -13.46350043	         19.34879430	         60.15136222	         11.51322636	          0.05000019	          0.05000017	          0.05000015	          0.05000135	          0.05000084	          0.05000052	          0.05000203	          0.05000036	          0.05000016	          0.33752472	          0.19554859	          0.18306828	          0.24518381	          0.06250938	          0.05000244	          0.05000019	          0.32794441	          0.22734348	          0.23680407	          0.05000038	          0.05000017	          0.05000015	          0.15417080	          0.17525938	          0.10297299	          0.05000485	          0.05000048	          0.06042515	          0.05000011	          0.05000010	          0.05000007	          0.05000009	          0.05000019	          0.05000002	          0.05000016	          0.05000084	          0.05000059	          0.32524897	          0.15539844	          0.05546676	          0.38898879	          0.46877180	          0.39510831	          0.08745961	          0.12233128	          0.05673003	          0.63769637	          0.48237150	          0.43438228	          0.43403404	          0.47096891	          0.47975365	          0.07502188	          0.05601622	          0.06876519	          0.05000056	          0.05000128	          0.05000022	          0.05000027	          0.05000109	          0.05000189	          0.07817297	          0.17378275	          0.05000115	          0.05000068	          0.26041407	          0.17014410	          0.05267641	          0.05000016	          0.05000017	          0.05000040	          0.05000351	          0.35058967	          0.09186385	          0.15673618	          0.16545379	          0.13679329	          0.06291194	          0.05000079	          0.08923390	          0.24797419	          0.11302519	          0.10377613	          0.10741841	          0.05000091	          0.05000049	          0.05000275	          0.05000153	          0.05000629	          0.05000007	          0.05000008	          0.05000010	
          1.28457578	         -5.54154670	          1.03912179	          2.05724959	          0.85508388	          1.01273799	          0.01506248	         11.27704005	          3.38023409	         -0.68882534	         11.24795824	          5.33687442	         15.00635162	        -44.37224494	        -11.38698895	         15.31255176	          8.48698436	          2.03103227	        -10.81507745	          2.05541657	          3.80295545	          2.25207951	          1.31078373	         -8.97454328	         -1.98464268	        -13.46342238	         19.34890206	        -17.08563082	        -13.46345700	         19.34861520	         61.97795771	         11.85117067	          0.05000018	          0.05000016	          0.05000014	          0.05000129	          0.05000082	          0.05000050	          0.05000106	          0.05000021	          0.05000010	          0.38532254	          0.20251178	          0.19215808	          0.25878775	          0.05003306	          0.05000177	          0.05000016	          0.32015973	          0.22454290	          0.19105507	          0.05000027	          0.05000013	          0.05000012	          0.13811322	          0.15730371	          0.10682338	          0.05000524	          0.05000045	          0.05000265	          0.05000014	          0.05000013	          0.05000009	          0.05000007	          0.05000016	          0.05000001	          0.05000016	          0.05000077	          0.05000056	          0.36239402	          0.17478789	          0.07331275	          0.39879328	          0.45079250	          0.39265427	          0.08532327	          0.12585504	          0.06236154	          0.62898101	          0.47810272	          0.43339271	          0.44161298	          0.47471962	          0.48059031	          0.06213177	          0.05000260	          0.05556530	          0.05000073	          0.05000215	          0.05000021	          0.05000027	          0.05000097	          0.05000163	          0.05000664	          0.23559840	          0.05000111	          0.05000068	          0.24424410	          0.15481590	          0.05000136	          0.05000021	          0.05000022	          0.05000041	          0.05000385	          0.36209917	          0.13614384	          0.12414212	          0.13127184	          0.10919359	          0.10102150	          0.05000771	          0.09574533	          0.24795639	          0.10507388	          0.09759102	          0.07342163	          0.05000099	          0.05000055	          0.05000274	          0.05000144	          0.05000542	          0.05000007	          0.05000008	          0.05000011	
          1.31838040	         -5.44563168	          1.53021322	          1.38284306	          0.87247858	          1.01448787	          0.01607395	         14.70268441	          3.90545854	         -1.03088582	          9.63502318	          4.77889252	         15.29338874	        -43.58620993	        -10.47257593	         16.64389746	          8.43607768	          1.08603318	        -10.66681371	          1.23077509	          4.76719133	          1.90349780	          1.03950081	         -8.59439384	         -0.57236504	        -13.46344596	         19.34891672	        -16.32629246	        -13.46342974	         19.34870302	         63.06227098	         12.52664718	          0.05000016	          0.05000016	          0.05000014	          0.05000120	          0.05000081	          0.05000051	          0.05000039	          0.05000014	          0.05000007	          0.38539043	          0.21520339	          0.21172299	          0.26742322	          0.05000698	          0.05000121	          0.05000013	          0.30098033	          0.21238743	          0.12220588	          0.05000021	          0.05000010	          0.05000010	          0.13730537	          0.15359271	          0.12328279	          0.05000713	          0.05000047	          0.05000087	          0.05000019	          0.05000018	          0.05000013	          0.05000008	          0.05000016	          0.05000002	          0.05000018	          0.05000085	          0.05000063	          0.38488094	          0.18280783	          0.09105205	          0.37255372	          0.42936125	          0.36297886	          0.08466632	          0.12612513	          0.06618883	          0.61468272	          0.47215316	          0.43453470	          0.43158819	          0.46756479	          0.47604683	          0.05000174	          0.05000111	          0.05000107	          0.05000099	          0.05000507	          0.05000021	          0.05000027	          0.05000089	          0.05000149	          0.05000115	          0.28819703	          0.05000114	          0.05000069	          0.22374080	          0.13413911	          0.05000077	          0.05000032	          0.05000033	          0.05000046	          0.05000450	          0.36995868	          0.17420750	          0.09340021	          0.09890485	          0.08310868	          0.13696346	          0.08968975	          0.09965047	          0.24602684	          0.08830745	          0.08376125	          0.05481149	          0.05000120	          0.05000071	          0.05000308	          0.05000168	          0.05000553	          0.05000007	          0.05000008	          0.05000011	
          1.35218503	         -5.36699752	          1.94290424	          0.72135289	          0.88939639	          1.01577269	          0.01683807	         18.05972374	          4.30683188	         -1.24629012	          8.10715132	          4.26939010	         15.50527261	        -42.00829641	         -9.60237050	         17.16530195	          8.35683029	          0.23683846	        -10.59709015	          0.71614984	          5.81819444	          1.56556781	          0.80716488	         -8.09299830	          0.92892336	        -13.46346558	         19.34892255	        -15.26659721	        -13.46342161	         19.34882091	         63.35677860	         13.46373824	          0.05000016	          0.05000016	          0.05000015	          0.05000105	          0.05000079	          0.05000053	          0.05000013	          0.05000011	          0.05000005	          0.34243790	          0.23612016	          0.23667767	          0.26646486	          0.05000399	          0.05000086	          0.05000012	          0.28137341	          0.18795239	          0.07816732	          0.05000018	          0.05000009	          0.05000009	          0.15158866	          0.16727337	          0.15104958	          0.05005244	          0.05000052	          0.05000051	          0.05000023	          0.05000021	          0.05000014	          0.05000011	          0.05000022	          0.05000004	          0.05000025	          0.05000110	          0.05000085	          0.38677066	          0.18174416	          0.10637314	          0.29822196	          0.40882779	          0.29693556	          0.08419187	          0.12715964	          0.06765515	          0.59299047	          0.45972117	          0.42764680	          0.41592442	          0.45508542	          0.46272437	          0.05000059	          0.05000072	          0.05000050	          0.05000127	          0.06192806	          0.05000022	          0.05000028	          0.05000086	          0.05000145	          0.05000079	          0.33548997	          0.05000119	          0.05000072	          0.19943351	          0.11049603	          0.05000056	          0.05000058	          0.05000061	          0.05000053	          0.05000518	          0.36987601	          0.20581372	          0.06928725	          0.07331095	          0.06125402	          0.17206803	          0.13181579	          0.10496812	          0.24539673	          0.07090927	          0.07114635	          0.05000301	          0.05000173	          0.05000110	          0.05000348	          0.05000177	          0.05000468	          0.05000007	          0.05000008	          0.05000011	
